# xmcd CD database file
#
# Track frame offsets:
#	150
#	27942
#	44880
#	62588
#	90233
#	102281
#	112853
#	136272
#	155919
#	177586
#	203965
#	229218
#	249467
#
# Disc length: 3606 seconds
#
# Revision: 0
# Processed by: cddbd v1.5.2PL0 Copyright (c) Steve Scherf et al.
# Submitted via: CDex 1.70beta2
#
DISCID=b20e140d
DTITLE=Tord Gustavsen Trio - Being There
DYEAR=2007
DGENRE=Jazz
TTITLE0=At home
TTITLE1=Vicar Street
TTITLE2=Draw Near
TTITLE3=Blessed Feet
TTITLE4=Sani
TTITLE5=Interlude
TTITLE6=Karmosin
TTITLE7=Still There
TTITLE8=Where We Went
TTITLE9=Cocoon
TTITLE10=Around You
TTITLE11=Vesper
TTITLE12=Wide Open
EXTD=YEAR: 2007
EXTT0=
EXTT1=
EXTT2=
EXTT3=
EXTT4=
EXTT5=
EXTT6=
EXTT7=
EXTT8=
EXTT9=
EXTT10=
EXTT11=
EXTT12=
PLAYORDER=
